<svg width="1323" height="239" viewBox="0 0 1323 239" fill="none" xmlns="http://www.w3.org/2000/svg">
<path d="M5 220.922V90.9495H66.4924L104.925 148.948L121.818 90.9495L146.852 5L171.277 93.7447L209.742 233.5H161.526L146.852 176.2L131.479 220.922H74.1789L50.4205 176.2V220.922H5Z" fill="white"/>
<path d="M121.818 90.9495L104.925 148.948L66.4924 90.9495H5V220.922H50.4205V176.2L74.1789 220.922H131.479L146.852 176.2L161.526 233.5H209.742L171.277 93.7447M121.818 90.9495L146.852 5L171.277 93.7447M121.818 90.9495L137.768 81.1667L143.358 116.106L152.442 100.034L165.719 116.106L171.277 93.7447" stroke="url(#paint0_linear_343_44)" stroke-width="10" stroke-linejoin="round"/>
<path d="M231.404 220.224L210.44 150.346H282.414L301.281 220.224H231.404Z" fill="white"/>
<path d="M323.642 220.224L301.281 150.346H326.437L339.015 183.189H356.485L350.895 165.02H396.315L415.182 220.224H387.93L371.858 199.26L378.147 220.224H323.642Z" fill="white"/>
<path d="M415.182 165.02L433.35 220.224H473.879L466.193 199.26H498.336L506.023 220.224H540.263L518.601 150.346C518.601 150.346 468.23 142.806 451.518 155.936C441.736 163.622 441.037 175.502 441.037 175.502L437.543 165.02H415.182Z" fill="white"/>
<path d="M459.205 129.382L451.518 108.419H518.601L506.023 76.2754H531.878L544.456 108.419H601.057L608.743 129.382H552.841L580.792 220.224H560.528L531.878 129.382H459.205Z" fill="white"/>
<path d="M577.997 150.346L596.864 220.224H634.598L629.008 199.26H654.862L661.151 220.224H693.994C693.994 220.224 687.705 177.598 680.018 163.622C675.284 155.015 668.066 153.024 658.64 150.424L658.356 150.346C638.092 144.756 577.997 150.346 577.997 150.346Z" fill="white"/>
<path d="M687.705 139.165L711.463 220.224H733.824L711.463 139.165H687.705Z" fill="white"/>
<path d="M738.716 165.02L756.884 220.224H797.413L789.726 199.26H821.87L829.557 220.224H863.797L842.135 150.346C842.135 150.346 791.763 142.806 775.052 155.936C765.269 163.622 764.57 175.502 764.57 175.502L761.076 165.02H738.716Z" fill="white"/>
<path d="M616.43 177.598H654.862M238.391 185.983H270.535M210.44 150.346L231.404 220.224H301.281L282.414 150.346H210.44ZM301.281 150.346L323.642 220.224H378.147L371.858 199.26L387.93 220.224H415.182L396.315 165.02H350.895L356.485 183.189H339.015L326.437 150.346H301.281ZM433.35 220.224L415.182 165.02H437.543L441.037 175.502C441.037 175.502 441.736 163.622 451.518 155.936C468.23 142.806 518.601 150.346 518.601 150.346L540.263 220.224H506.023L498.336 199.26H466.193L473.879 220.224H433.35ZM451.518 108.419L459.205 129.382H531.878L560.528 220.224H580.792L552.841 129.382H608.743L601.057 108.419H544.456L531.878 76.2754H506.023L518.601 108.419H451.518ZM596.864 220.224L577.997 150.346C577.997 150.346 638.092 144.756 658.356 150.346C667.921 152.985 675.237 154.929 680.018 163.622C687.705 177.598 693.994 220.224 693.994 220.224H661.151L654.862 199.26H629.008L634.598 220.224H596.864ZM711.463 220.224L687.705 139.165H711.463L733.824 220.224H711.463ZM756.884 220.224L738.716 165.02H761.076L764.57 175.502C764.57 175.502 765.269 163.622 775.052 155.936C791.763 142.806 842.135 150.346 842.135 150.346L863.797 220.224H829.557L821.87 199.26H789.726L797.413 220.224H756.884Z" stroke="url(#paint1_linear_343_44)" stroke-width="10" stroke-linejoin="round"/>
<path d="M956.734 219.524V30.8545H986.083V143.358H1018.23V52.5166H1045.48V219.524H1018.23V164.321H986.083V219.524H956.734Z" fill="url(#paint2_linear_343_44)"/>
<path d="M1086.71 70.6848H1062.95V219.524H1127.5V199.958L1144.5 219.524H1157.98V95.142H1114.66V194.368H1086.71V70.6848Z" fill="url(#paint3_linear_343_44)"/>
<path d="M1176.15 219.524V52.5166H1235.2V137.069H1270.49V219.524H1176.15Z" fill="url(#paint4_linear_343_44)"/>
<path d="M1290.75 194.368V219.524H1318V194.368H1290.75Z" fill="url(#paint5_linear_343_44)"/>
<path d="M1199.91 137.069H1235.2M1235.2 137.069H1270.49V219.524H1176.15V52.5166H1235.2V137.069ZM1199.91 95.142H1219.47M1199.91 180.393H1235.2M956.734 30.8545V219.524H986.083V164.321H1018.23V219.524H1045.48V52.5166H1018.23V143.358H986.083V30.8545H956.734ZM1062.95 70.6848H1086.71V194.368H1114.66V95.142H1157.98V219.524H1144.5L1127.5 199.958V219.524H1062.95V70.6848ZM1290.75 219.524V194.368H1318V219.524H1290.75Z" stroke="url(#paint6_linear_343_44)" stroke-width="10" stroke-linecap="round" stroke-linejoin="round"/>
<circle cx="696" cy="110" r="12" fill="white" stroke="url(#paint7_linear_343_44)" stroke-width="10"/>
<path d="M1205 177H1238.5" stroke="white" stroke-width="10" stroke-linecap="round"/>
<path d="M1205 76H1215" stroke="white" stroke-width="10" stroke-linecap="round"/>
<defs>
<linearGradient id="paint0_linear_343_44" x1="107.371" y1="5" x2="107.371" y2="233.5" gradientUnits="userSpaceOnUse">
<stop stop-color="#00DF56"/>
<stop offset="0.495192" stop-color="#9AB8F4"/>
<stop offset="1" stop-color="#83593D"/>
</linearGradient>
<linearGradient id="paint1_linear_343_44" x1="537.119" y1="76.2754" x2="537.119" y2="220.224" gradientUnits="userSpaceOnUse">
<stop stop-color="#00DF56"/>
<stop offset="0.495192" stop-color="#9AB8F4"/>
<stop offset="1" stop-color="#83593D"/>
</linearGradient>
<linearGradient id="paint2_linear_343_44" x1="1137.37" y1="30.8545" x2="1137.37" y2="219.524" gradientUnits="userSpaceOnUse">
<stop stop-color="#00DF56"/>
<stop offset="0.495192" stop-color="#9AB8F4"/>
<stop offset="1" stop-color="#83593D"/>
</linearGradient>
<linearGradient id="paint3_linear_343_44" x1="1137.37" y1="30.8545" x2="1137.37" y2="219.524" gradientUnits="userSpaceOnUse">
<stop stop-color="#00DF56"/>
<stop offset="0.495192" stop-color="#9AB8F4"/>
<stop offset="1" stop-color="#83593D"/>
</linearGradient>
<linearGradient id="paint4_linear_343_44" x1="1137.37" y1="30.8545" x2="1137.37" y2="219.524" gradientUnits="userSpaceOnUse">
<stop stop-color="#00DF56"/>
<stop offset="0.495192" stop-color="#9AB8F4"/>
<stop offset="1" stop-color="#83593D"/>
</linearGradient>
<linearGradient id="paint5_linear_343_44" x1="1137.37" y1="30.8545" x2="1137.37" y2="219.524" gradientUnits="userSpaceOnUse">
<stop stop-color="#00DF56"/>
<stop offset="0.495192" stop-color="#9AB8F4"/>
<stop offset="1" stop-color="#83593D"/>
</linearGradient>
<linearGradient id="paint6_linear_343_44" x1="1137.37" y1="30.8545" x2="1137.37" y2="219.524" gradientUnits="userSpaceOnUse">
<stop stop-color="#00DF56"/>
<stop offset="0.495192" stop-color="#9AB8F4"/>
<stop offset="1" stop-color="#83593D"/>
</linearGradient>
<linearGradient id="paint7_linear_343_44" x1="696" y1="93" x2="696" y2="127" gradientUnits="userSpaceOnUse">
<stop stop-color="#00DF56"/>
<stop offset="0.495192" stop-color="#9AB8F4"/>
<stop offset="1" stop-color="#83593D"/>
</linearGradient>
</defs>
</svg>
