<svg width="528" height="96" viewBox="0 0 528 96" fill="none" xmlns="http://www.w3.org/2000/svg">
<path d="M1.99609 88.1668V36.2968H26.5368L41.8747 59.4431L48.6163 36.2968L58.6069 1.99561L68.3546 37.4122L83.7054 93.1865H64.4632L58.6069 70.319L52.4718 88.1668H29.6043L20.1227 70.319V88.1668H1.99609Z" fill="white"/>
<path d="M48.6163 36.2968L41.8747 59.4431L26.5368 36.2968H1.99609V88.1668H20.1227V70.319L29.6043 88.1668H52.4718L58.6069 70.319L64.4632 93.1865H83.7053L68.3546 37.4122M48.6163 36.2968L58.6069 1.99561L68.3546 37.4122M48.6163 36.2968L54.9816 32.3926L57.2126 46.3361L60.8379 39.9221L66.1365 46.3361L68.3546 37.4122" stroke="url(#paint0_linear_347_858)" stroke-width="3.99085" stroke-linejoin="round"/>
<path d="M92.3505 87.888L83.9844 60.0009H112.708L120.238 87.888H92.3505Z" fill="white"/>
<path d="M129.162 87.888L120.238 60.0009H130.277L135.297 73.1078H142.268L140.037 65.8572H158.164L165.694 87.888H154.818L148.404 79.5219L150.913 87.888H129.162Z" fill="white"/>
<path d="M165.694 65.8572L172.944 87.888H189.119L186.051 79.5219H198.879L201.947 87.888H215.612L206.967 60.0009C206.967 60.0009 186.864 56.9919 180.195 62.2319C176.291 65.2993 176.012 70.0403 176.012 70.0403L174.618 65.8572H165.694Z" fill="white"/>
<path d="M183.263 51.6346L180.195 43.2685H206.967L201.947 30.4404H212.265L217.285 43.2685H239.873L242.941 51.6346H220.631L231.786 87.888H223.699L212.265 51.6346H183.263Z" fill="white"/>
<path d="M230.671 60.0009L238.2 87.888H253.259L251.028 79.5219H261.346L263.856 87.888H276.963C276.963 87.888 274.453 70.8767 271.386 65.2993C269.496 61.8641 266.616 61.0696 262.854 60.0321L262.741 60.0009C254.654 57.7698 230.671 60.0009 230.671 60.0009Z" fill="white"/>
<path d="M274.453 55.5388L283.935 87.888H292.859L283.935 55.5388H274.453Z" fill="white"/>
<path d="M294.811 65.8572L302.062 87.888H318.236L315.169 79.5219H327.997L331.064 87.888H344.729L336.084 60.0009C336.084 60.0009 315.982 56.9919 309.312 62.2319C305.408 65.2993 305.129 70.0403 305.129 70.0403L303.735 65.8572H294.811Z" fill="white"/>
<path d="M246.009 70.8767H261.346M95.1392 74.2232H107.967M83.9844 60.0009L92.3505 87.888H120.238L112.708 60.0009H83.9844ZM120.238 60.0009L129.162 87.888H150.913L148.404 79.5219L154.818 87.888H165.694L158.164 65.8572H140.037L142.268 73.1078H135.297L130.277 60.0009H120.238ZM172.944 87.888L165.694 65.8572H174.617L176.012 70.0403C176.012 70.0403 176.291 65.2993 180.195 62.2319C186.864 56.9919 206.967 60.0009 206.967 60.0009L215.612 87.888H201.947L198.879 79.5219H186.051L189.119 87.888H172.944ZM180.195 43.2685L183.263 51.6346H212.265L223.699 87.888H231.786L220.631 51.6346H242.941L239.873 43.2685H217.285L212.265 30.4404H201.947L206.967 43.2685H180.195ZM238.2 87.888L230.671 60.0009C230.671 60.0009 254.654 57.7698 262.741 60.0009C266.558 61.054 269.478 61.8298 271.386 65.2993C274.453 70.8767 276.963 87.888 276.963 87.888H263.856L261.346 79.5219H251.028L253.259 87.888H238.2ZM283.935 87.888L274.453 55.5388H283.935L292.859 87.888H283.935ZM302.062 87.888L294.811 65.8572H303.735L305.129 70.0403C305.129 70.0403 305.408 65.2993 309.312 62.2319C315.982 56.9919 336.084 60.0009 336.084 60.0009L344.729 87.888H331.064L327.997 79.5219H315.169L318.236 87.888H302.062Z" stroke="url(#paint1_linear_347_858)" stroke-width="3.99085" stroke-linejoin="round"/>
<path d="M381.82 87.6092V12.314H393.533V57.2122H406.361V20.959H417.237V87.6092H406.361V65.5784H393.533V87.6092H381.82Z" fill="url(#paint2_linear_347_858)"/>
<path d="M433.69 28.2096H424.209V87.6092H449.97V79.8008L456.755 87.6092H462.135V37.9701H444.845V77.5698H433.69V28.2096Z" fill="url(#paint3_linear_347_858)"/>
<path d="M469.386 87.6092V20.959H492.95V54.7024H507.033V87.6092H469.386Z" fill="url(#paint4_linear_347_858)"/>
<path d="M515.121 77.5698V87.6092H525.997V77.5698H515.121Z" fill="url(#paint5_linear_347_858)"/>
<path d="M478.867 54.7024H492.95M492.95 54.7024H507.033V87.6092H469.386V20.959H492.95V54.7024ZM478.867 37.9701H486.676M478.867 71.9924H492.95M381.82 12.314V87.6092H393.533V65.5784H406.361V87.6092H417.237V20.959H406.361V57.2122H393.533V12.314H381.82ZM424.209 28.2096H433.69V77.5698H444.845V37.9701H462.135V87.6092H456.755L449.97 79.8008V87.6092H424.209V28.2096ZM515.121 87.6092V77.5698H525.997V87.6092H515.121Z" stroke="url(#paint6_linear_347_858)" stroke-width="3.99085" stroke-linecap="round" stroke-linejoin="round"/>
<circle cx="277.765" cy="43.8997" r="4.78902" fill="white" stroke="url(#paint7_linear_347_858)" stroke-width="3.99085"/>
<path d="M480.896 70.6382H494.266" stroke="white" stroke-width="3.99085" stroke-linecap="round"/>
<path d="M480.896 30.3306H484.887" stroke="white" stroke-width="3.99085" stroke-linecap="round"/>
<defs>
<linearGradient id="paint0_linear_347_858" x1="42.8507" y1="1.99561" x2="42.8507" y2="93.1865" gradientUnits="userSpaceOnUse">
<stop stop-color="#00DF56"/>
<stop offset="0.495192" stop-color="#9AB8F4"/>
<stop offset="1" stop-color="#83593D"/>
</linearGradient>
<linearGradient id="paint1_linear_347_858" x1="214.357" y1="30.4404" x2="214.357" y2="87.888" gradientUnits="userSpaceOnUse">
<stop stop-color="#00DF56"/>
<stop offset="0.495192" stop-color="#9AB8F4"/>
<stop offset="1" stop-color="#83593D"/>
</linearGradient>
<linearGradient id="paint2_linear_347_858" x1="453.909" y1="12.314" x2="453.909" y2="87.6092" gradientUnits="userSpaceOnUse">
<stop stop-color="#00DF56"/>
<stop offset="0.495192" stop-color="#9AB8F4"/>
<stop offset="1" stop-color="#83593D"/>
</linearGradient>
<linearGradient id="paint3_linear_347_858" x1="453.909" y1="12.314" x2="453.909" y2="87.6092" gradientUnits="userSpaceOnUse">
<stop stop-color="#00DF56"/>
<stop offset="0.495192" stop-color="#9AB8F4"/>
<stop offset="1" stop-color="#83593D"/>
</linearGradient>
<linearGradient id="paint4_linear_347_858" x1="453.909" y1="12.314" x2="453.909" y2="87.6092" gradientUnits="userSpaceOnUse">
<stop stop-color="#00DF56"/>
<stop offset="0.495192" stop-color="#9AB8F4"/>
<stop offset="1" stop-color="#83593D"/>
</linearGradient>
<linearGradient id="paint5_linear_347_858" x1="453.909" y1="12.314" x2="453.909" y2="87.6092" gradientUnits="userSpaceOnUse">
<stop stop-color="#00DF56"/>
<stop offset="0.495192" stop-color="#9AB8F4"/>
<stop offset="1" stop-color="#83593D"/>
</linearGradient>
<linearGradient id="paint6_linear_347_858" x1="453.909" y1="12.314" x2="453.909" y2="87.6092" gradientUnits="userSpaceOnUse">
<stop stop-color="#00DF56"/>
<stop offset="0.495192" stop-color="#9AB8F4"/>
<stop offset="1" stop-color="#83593D"/>
</linearGradient>
<linearGradient id="paint7_linear_347_858" x1="277.765" y1="37.1152" x2="277.765" y2="50.6841" gradientUnits="userSpaceOnUse">
<stop stop-color="#00DF56"/>
<stop offset="0.495192" stop-color="#9AB8F4"/>
<stop offset="1" stop-color="#83593D"/>
</linearGradient>
</defs>
</svg>
